<?xml version="1.0" encoding="utf-8"?>
<!-- Generator: Adobe Illustrator 22.1.0, SVG Export Plug-In . SVG Version: 6.00 Build 0)  -->
<svg version="1.1" id="Layer_1" xmlns="http://www.w3.org/2000/svg" xmlns:xlink="http://www.w3.org/1999/xlink" x="0px" y="0px"
	 viewBox="0 0 81.1 81" style="enable-background:new 0 0 81.1 81;" xml:space="preserve">
<style type="text/css">
	.st0{fill:#444444;}
</style>
<path class="st0" d="M43.2,12.7l-4.4-4.5c-0.5-0.5-1.2-0.8-1.9-0.8s-1.4,0.3-2,0.8l-5.4,5.2l-16-4.1c-3.6-1.2-7.3-0.5-9.7,1.9L0,15
	l21.1,10.2c-0.5,1.6-0.5,3.1,0.2,3.8l0.6,0.6c0.4,0.4,1.1,0.6,1.9,0.6c1.4,0,3.2-0.6,4.9-1.4l8,3.9c-0.4,0.4-3.3,3.3-4.3,4.3
	c-0.7,0.7-1.4,1.5-2,2.3L17.6,56.8L6.8,55.2l-4.3,4.2l5.9,5.9l7.2,7.2l5.9,5.9l4.2-4.2l-1.6-10.8l17.2-12.8c0.8-0.6,1.6-1.3,2.3-2
	c1-1,3.9-3.8,4.3-4.3l3.5,7.3c-1.4,2.7-2.3,5.8-1,7l0.6,0.6c0.4,0.4,1.1,0.6,1.9,0.6c0.7,0,1.5-0.2,2.3-0.4L65.7,81l3.8-3.8
	c2.4-2.4,3.1-6.1,1.9-9.7L67.5,51l5-4.9c1.1-1.1,1.1-2.8,0.1-3.9l-4.4-4.5c-0.5-0.5-1.2-0.8-1.9-0.8c-0.7,0-1.4,0.3-2,0.8l-0.2,0.2
	l-1.9-7.6l11.6-11.6c3.6-3.6,9.5-14.7,6.4-17.8S66,3.7,62.4,7.3L50.8,18.8l-7.9-2l0.2-0.2C44.2,15.5,44.3,13.7,43.2,12.7z"/>
</svg>
