<?xml version="1.0" encoding="utf-8"?>
<!-- Generator: Adobe Illustrator 22.1.0, SVG Export Plug-In . SVG Version: 6.00 Build 0)  -->
<svg version="1.1" id="Layer_1" xmlns="http://www.w3.org/2000/svg" xmlns:xlink="http://www.w3.org/1999/xlink" x="0px" y="0px"
	 viewBox="0 0 100 125" style="enable-background:new 0 0 100 125;" xml:space="preserve">
<style type="text/css">
	.st0{fill:#2F8900;}
</style>
<g>
	<path class="st0" d="M23.8,57H7.5v24.8h18.3V58.9C25.8,57.8,24.9,57,23.8,57z M12.7,67.3c-1.2,0-2.2-1-2.2-2.2c0-1.2,1-2.2,2.2-2.2
		c1.2,0,2.2,1,2.2,2.2C14.9,66.3,13.9,67.3,12.7,67.3z"/>
	<path class="st0" d="M76.4,57c-1.1,0-2,0.9-2,2v19.9v2.9h18.2V57L76.4,57L76.4,57z M87.2,67.3c-1.2,0-2.2-1-2.2-2.2
		c0-1.2,1-2.2,2.2-2.2c1.2,0,2.2,1,2.2,2.2C89.4,66.3,88.4,67.3,87.2,67.3z"/>
	<path class="st0" d="M50,50.7c-13,0-21,4.1-21.9,5.5c0,0.3,0,1.3,0,2.7c0,0,0,0,0,0v19.9l0,0c0,1.2,0,2.2,0,2.9h44v-2.9V58.9v-2.7
		C71.3,55,63,50.7,50,50.7z M35.8,66.5c-2.7,0-4.8-2.2-4.8-4.8c0-2.7,2.2-4.8,4.8-4.8c2.7,0,4.8,2.2,4.8,4.8S38.5,66.5,35.8,66.5z
		 M56.6,74.5c0,1.7-1.4,3.1-3.1,3.1h-6.8c-1.7,0-3.1-1.4-3.1-3.1V57.6c0-1.7,1.4-3.1,3.1-3.1h6.8c1.7,0,3.1,1.4,3.1,3.1V74.5z
		 M64.2,66.5c-2.7,0-4.8-2.2-4.8-4.8c0-2.7,2.2-4.8,4.8-4.8c2.7,0,4.8,2.2,4.8,4.8S66.9,66.5,64.2,66.5z"/>
	<g>
		<rect x="45.9" y="57.1" width="3.3" height="3.3"/>
		<rect x="50.9" y="57.1" width="3.3" height="3.3"/>
		<rect x="45.9" y="62" width="3.3" height="3.3"/>
		<rect x="50.9" y="62" width="3.3" height="3.3"/>
		<rect x="45.9" y="67" width="3.3" height="3.3"/>
		<rect x="50.9" y="67" width="3.3" height="3.3"/>
		<rect x="45.9" y="71.9" width="3.3" height="3.3"/>
		<rect x="50.9" y="71.9" width="3.3" height="3.3"/>
	</g>
	<g>
		<path class="st0" d="M5.8,86.8H3.2v6.5h4.4v13.7c0,2.2,1.8,3.9,3.9,3.9h6.1c2.2,0,3.9-1.8,3.9-3.9V93.3h1.9V99H32v-3.8
			c0,0,5.6,3.8,10.7,3.8c6.3-0.1,9.9-3.4,11.2-5.6h11.1V99H75v-5.6h3.8v13.7c0,2.2,1.8,3.9,3.9,3.9h6c2.2,0,3.9-1.8,3.9-3.9V93.3
			h3.7v-6.5L5.8,86.8L5.8,86.8L5.8,86.8z"/>
		<path class="st0" d="M92.7,29c0,0,0-10.9,0-10.9c0,0-4.3-0.9-7-2c-2.1-0.8-4.6-2.1-4.6-2.1H19c0,0-2.5,1.3-4.6,2.1
			c-2.6,1-6.9,2-6.9,2l0,10.9H0.2v13.3h7.3v12.3h16.4c0.8,0,1.5,0.2,2.2,0.6c1-1.9,5-3.5,6.8-4.2c0,0,0,0,0,0
			c-0.7-0.8-1.2-1.8-1.2-2.9V41c0-0.7,0.2-1.4,0.5-2H21.9c0.8-2.9,3.5-5,6.6-5c3.2,0,5.9,2.2,6.7,5.2c-0.7,0.3-1.1,1-1.1,1.8v7.1
			c0,1.1,0.9,2,2,2v0c4.2-1.1,9.1-1.7,14-1.7c5,0,10.1,0.7,14.5,1.9v0c1.1,0,2-0.9,2-2V41c0-1.1-0.9-2-2-2H51.9V21.8h36.9V39H68.4
			c0.3,0.6,0.5,1.3,0.5,2v7.2c0,1.2-0.5,2.2-1.2,2.9c2,0.7,5.7,2.3,6.6,4c0.6-0.4,1.4-0.6,2.2-0.6h16.2V42.3h7.3V29L92.7,29L92.7,29
			z M48.4,39h-8.9h-0.7c-0.9-4.9-5.1-8.6-10.2-8.6s-9.4,3.7-10.2,8.6h-6.9V21.8h37L48.4,39L48.4,39z"/>
	</g>
</g>
</svg>
