<?xml version="1.0" encoding="utf-8"?>
<!-- Generator: Adobe Illustrator 22.1.0, SVG Export Plug-In . SVG Version: 6.00 Build 0)  -->
<svg version="1.1" id="Layer_1" xmlns="http://www.w3.org/2000/svg" xmlns:xlink="http://www.w3.org/1999/xlink" x="0px" y="0px"
	 viewBox="0 0 96 75" style="enable-background:new 0 0 96 75;" xml:space="preserve">
<style type="text/css">
	.st0{fill:#2D54FF;}
</style>
<g transform="scale(1 -1)">
	<g transform="translate(0 -96)">
		<g>
			<path marker-end="none" marker-start="none" class="st0" d="M8.2,36.9l2.2,3.2l-3.8,6.3h0v2.8h22v9.4h-3.7l0,0.1h0l0,2.9h66.1
				v-0.9h0v-2h0v-0.9h0v-0.4l0-0.6v-0.2h0L80.1,40.3l3-3.4H8.2z M55.3,46.5L55.3,46.5C55.3,46.5,55.3,46.5,55.3,46.5z M43.6,49.3
				v9.4h-6.9v-9.4H43.6z M59.4,49.3v9.4h-7.7v-9.4H59.4z M7.9,54.3v1.5h9.3v-1.5H7.9z M7.5,58.7H10v-1.1H9.9
				C8.9,57.6,8.1,58,7.5,58.7z M11.2,57.6v6.8h1.1v10l-0.3,0.3c-0.6,0.6-0.6,1.5,0,2.1c0.6,0.6,1.5,0.6,2.1,0l1.5-1.5l10.4-1.1
				l0.3,1.6h6.2V64.3h-10l-8.6,8.6v-8.5h1.3c0.9,0,1.7-0.4,2.3-1h1.7V61h-0.8v-0.3c0-1.7-1.4-3.1-3.1-3.1H11.2z M76.6,58v2h-4.1v-2
				H76.6z M82.7,58v2h-4.1v-2H82.7z M88.9,58v2h-4.1v-2H88.9z M6.8,60.7v0.5c0,1.7,1.4,3.1,3.1,3.1H10V60H6.9
				C6.8,60.2,6.8,60.5,6.8,60.7z M39.9,64.3V73h22.4l0.8-2h-6.9v-2h7.7l1.8-4.6H39.9z M24.8,66.2v0.1l1,6.4l-8.4,0.9L24.8,66.2z
				 M54.2,68.9v2h-4.1v-2H54.2z M48,68.9v2H44v-2H48z M46,75v4.1h12V75H46z M46,81.2v2h4.1v-2H46z"/>
		</g>
	</g>
</g>
</svg>
