<?xml version="1.0" encoding="utf-8"?>
<!-- Generator: Adobe Illustrator 22.1.0, SVG Export Plug-In . SVG Version: 6.00 Build 0)  -->
<svg version="1.1" id="Layer_1" xmlns="http://www.w3.org/2000/svg" xmlns:xlink="http://www.w3.org/1999/xlink" x="0px" y="0px"
	 viewBox="0 0 72.4 40" style="enable-background:new 0 0 72.4 40;" xml:space="preserve">
<style type="text/css">
	.st0{fill:#FFCC00;}
</style>
<path class="st0" d="M70.5,20.7c-0.5-0.2-0.9-0.5-1.3-0.6c-1.5-0.6-3.1-1.1-4.7-1.4c-0.4-0.1-0.9-0.2-1.3-0.2
	c-0.6-0.1-1.3-0.1-1.9-0.2c-0.5,0-1-0.1-1.4-0.1c-1.1,0-2.3,0-3.4,0c-0.6,0-1.2,0-1.8,0c-0.6,0-1.1,0-1.7,0c-0.3,0-0.7,0-1,0
	c0,0-0.1-0.1-0.1-0.1c-0.2-0.1-1.2-3.3-1.3-3.7c0-0.3-0.1-0.5-0.2-0.8c0-0.2-0.1-0.2-0.3-0.2c-0.5,0-1.1,0-1.6,0c-1.3,0-2.6,0-3.8,0
	V9.8h-0.2v3.5c-0.1,0-0.2,0-0.4,0v-2.6h-0.6v-5h-0.4v5h-0.6v2.5c-0.6,0-1.2,0-1.8,0.1c-0.5,0-1,0-1.5,0.1c-0.3,0.1-0.6,0.2-0.8,0.5
	c-0.2,0.2-0.3,0.5-0.5,0.7c-0.3,0.5-0.6,1-0.9,1.5c-0.4,0.6-0.7,1.1-1.1,1.7c0,0-16.2-0.3-21.2-0.4c-0.5,0-1,0.1-1.5,0.3
	c-0.7,0.3-1.3,0.6-2,0.9c-0.5,0.3-1.1,0.5-1.6,0.8c-0.3,0.2-0.7,0.3-1,0.5c-0.2,0.1-0.4,0.2-0.7,0.3c-0.1,0-0.1,0-0.1-0.1
	c0-0.3-0.1-0.7-0.1-1c0-0.4-0.1-0.8-0.1-1.2c0-0.3-0.1-0.5-0.1-0.8c0-0.1-0.1-0.1-0.1-0.1c-0.4-0.1-0.7-0.2-1.1-0.2
	c-0.3,0-0.7,0-1,0.1c-0.3,0-0.6,0.1-0.9,0.1c0,0.1,0,0.1,0,0.1c0,1.2,0,2.5,0,3.7c0,0.2-0.1,0.5,0.1,0.7C4,21.8,3.6,22,3.2,22.2
	c0-0.2,0-0.3,0-0.4c-0.2,0-1.7,0.5-1.9,0.5c-0.1,0-0.2,0.1-0.2,0.2c0,0.3,0,0.6,0,0.9c0,0.1,0,0.1-0.1,0.2c-0.2,0.1-0.4,0.2-0.6,0.3
	c-0.1,0-0.2,0.1-0.3,0.1c-0.1,0.1,0,0.2,0,0.4c0,0.1,0,0.1,0.1,0.2c0.3,0.1,0.6,0.3,1,0.4c0,0.4,0,0.8,0,1.1
	c0.3,0.1,2.2,0.6,2.2,0.4c0-0.2,0-0.3,0-0.5c0,0,0.1,0,0.1,0c0.3,0.1,0.6,0.3,1,0.4c0.1,0,0.1,0.1,0.1,0.1c0,0.4,0,0.9,0,1.3
	c0,0.8,0,1.6,0,2.5c0,0.1,0,0.1,0,0.2c0.2,0,0.3,0,0.5,0.1c0.3,0,0.7,0.1,1,0.1c0.5,0,1,0,1.5-0.1c0.1,0,0.1-0.1,0.1-0.1
	c0-0.4,0.1-0.8,0.1-1.2c0-0.4,0.1-0.8,0.1-1.2c0.1,0,0.1,0,0.1,0c0.5,0.2,0.9,0.3,1.4,0.5c0.4,0.1,0.9,0.2,1.4,0.3
	c0.5,0.1,1,0.2,1.5,0.2c0.7,0,1.4,0,2.1,0c1.4,0,2.9,0,4.3,0c7.7,0,15.4,0,23,0c1.2,0,2.5,0,3.7,0c1.3,0,2.7,0,4,0
	c2.1,0,4.3,0,6.4,0c0.9,0,15.1,0.4,16.5-4.1C72.3,24.8,73.3,22,70.5,20.7z"/>
</svg>
